<mxfile host="app.diagrams.net" modified="2024-01-28T21:01:06.179Z" agent="Mozilla/5.0 (Windows NT 10.0; Win64; x64) AppleWebKit/537.36 (KHTML, like Gecko) Chrome/120.0.0.0 Safari/537.36" etag="F-N3GvcI1hWnGAN0UmOv" version="22.1.17" type="device">
  <diagram name="Страница — 1" id="SWLcVmn2w8-oUVrIP8EW">
    <mxGraphModel dx="2074" dy="1140" grid="1" gridSize="10" guides="1" tooltips="1" connect="1" arrows="1" fold="1" page="1" pageScale="1" pageWidth="827" pageHeight="1169" math="0" shadow="0">
      <root>
        <mxCell id="0" />
        <mxCell id="1" parent="0" />
        <mxCell id="gHH44tUbJipPFbH2hdy1-1" value="" style="shape=cylinder3;whiteSpace=wrap;html=1;boundedLbl=1;backgroundOutline=1;size=15;" parent="1" vertex="1">
          <mxGeometry x="369" y="665" width="60" height="80" as="geometry" />
        </mxCell>
        <mxCell id="gHH44tUbJipPFbH2hdy1-19" style="edgeStyle=orthogonalEdgeStyle;rounded=0;orthogonalLoop=1;jettySize=auto;html=1;" parent="1" source="gHH44tUbJipPFbH2hdy1-2" target="gHH44tUbJipPFbH2hdy1-15" edge="1">
          <mxGeometry relative="1" as="geometry" />
        </mxCell>
        <mxCell id="gHH44tUbJipPFbH2hdy1-20" style="edgeStyle=orthogonalEdgeStyle;rounded=0;orthogonalLoop=1;jettySize=auto;html=1;entryX=0.5;entryY=0;entryDx=0;entryDy=0;" parent="1" source="gHH44tUbJipPFbH2hdy1-2" target="gHH44tUbJipPFbH2hdy1-18" edge="1">
          <mxGeometry relative="1" as="geometry" />
        </mxCell>
        <mxCell id="gHH44tUbJipPFbH2hdy1-22" style="edgeStyle=orthogonalEdgeStyle;rounded=0;orthogonalLoop=1;jettySize=auto;html=1;entryX=0.5;entryY=0;entryDx=0;entryDy=0;" parent="1" source="gHH44tUbJipPFbH2hdy1-2" target="gHH44tUbJipPFbH2hdy1-21" edge="1">
          <mxGeometry relative="1" as="geometry" />
        </mxCell>
        <mxCell id="gHH44tUbJipPFbH2hdy1-2" value="Internet" style="ellipse;shape=cloud;whiteSpace=wrap;html=1;" parent="1" vertex="1">
          <mxGeometry x="344" y="120" width="120" height="80" as="geometry" />
        </mxCell>
        <mxCell id="gHH44tUbJipPFbH2hdy1-3" value="" style="shape=cylinder3;whiteSpace=wrap;html=1;boundedLbl=1;backgroundOutline=1;size=15;" parent="1" vertex="1">
          <mxGeometry x="379" y="675" width="60" height="80" as="geometry" />
        </mxCell>
        <mxCell id="gHH44tUbJipPFbH2hdy1-4" value="PXC Cluster" style="shape=cylinder3;whiteSpace=wrap;html=1;boundedLbl=1;backgroundOutline=1;size=15;" parent="1" vertex="1">
          <mxGeometry x="389" y="685" width="60" height="80" as="geometry" />
        </mxCell>
        <mxCell id="gHH44tUbJipPFbH2hdy1-6" value="" style="shape=cylinder3;whiteSpace=wrap;html=1;boundedLbl=1;backgroundOutline=1;size=15;" parent="1" vertex="1">
          <mxGeometry x="369" y="520" width="60" height="80" as="geometry" />
        </mxCell>
        <mxCell id="gHH44tUbJipPFbH2hdy1-33" style="edgeStyle=orthogonalEdgeStyle;rounded=0;orthogonalLoop=1;jettySize=auto;html=1;entryX=0.5;entryY=0;entryDx=0;entryDy=0;entryPerimeter=0;" parent="1" source="gHH44tUbJipPFbH2hdy1-7" edge="1" target="w4JY9uhTYFdQ_E_2Ne8X-2">
          <mxGeometry relative="1" as="geometry">
            <mxPoint x="520" y="570" as="targetPoint" />
          </mxGeometry>
        </mxCell>
        <mxCell id="gHH44tUbJipPFbH2hdy1-7" value="Backend +&lt;br&gt;Fluent-bit" style="shape=cylinder3;whiteSpace=wrap;html=1;boundedLbl=1;backgroundOutline=1;size=15;" parent="1" vertex="1">
          <mxGeometry x="379" y="530" width="60" height="80" as="geometry" />
        </mxCell>
        <mxCell id="gHH44tUbJipPFbH2hdy1-8" value="" style="endArrow=classic;startArrow=classic;html=1;rounded=0;entryX=0.5;entryY=1;entryDx=0;entryDy=0;entryPerimeter=0;exitX=0.678;exitY=-0.029;exitDx=0;exitDy=0;exitPerimeter=0;" parent="1" source="gHH44tUbJipPFbH2hdy1-1" target="gHH44tUbJipPFbH2hdy1-7" edge="1">
          <mxGeometry width="50" height="50" relative="1" as="geometry">
            <mxPoint x="-96" y="790" as="sourcePoint" />
            <mxPoint x="-46" y="740" as="targetPoint" />
          </mxGeometry>
        </mxCell>
        <mxCell id="gHH44tUbJipPFbH2hdy1-11" value="" style="shape=cylinder3;whiteSpace=wrap;html=1;boundedLbl=1;backgroundOutline=1;size=15;" parent="1" vertex="1">
          <mxGeometry x="374" y="390" width="60" height="80" as="geometry" />
        </mxCell>
        <mxCell id="gHH44tUbJipPFbH2hdy1-14" value="Nginx" style="shape=cylinder3;whiteSpace=wrap;html=1;boundedLbl=1;backgroundOutline=1;size=15;" parent="1" vertex="1">
          <mxGeometry x="384" y="400" width="60" height="80" as="geometry" />
        </mxCell>
        <mxCell id="gHH44tUbJipPFbH2hdy1-15" value="YC LB" style="rounded=0;whiteSpace=wrap;html=1;" parent="1" vertex="1">
          <mxGeometry x="344" y="280" width="120" height="60" as="geometry" />
        </mxCell>
        <mxCell id="gHH44tUbJipPFbH2hdy1-16" value="" style="endArrow=classic;startArrow=classic;html=1;rounded=0;entryX=0.5;entryY=1;entryDx=0;entryDy=0;entryPerimeter=0;" parent="1" target="gHH44tUbJipPFbH2hdy1-14" edge="1">
          <mxGeometry width="50" height="50" relative="1" as="geometry">
            <mxPoint x="414" y="520" as="sourcePoint" />
            <mxPoint x="419" y="620" as="targetPoint" />
            <Array as="points" />
          </mxGeometry>
        </mxCell>
        <mxCell id="gHH44tUbJipPFbH2hdy1-17" value="" style="endArrow=classic;startArrow=classic;html=1;rounded=0;entryX=0.5;entryY=1;entryDx=0;entryDy=0;exitX=0.5;exitY=0;exitDx=0;exitDy=0;exitPerimeter=0;" parent="1" source="gHH44tUbJipPFbH2hdy1-11" target="gHH44tUbJipPFbH2hdy1-15" edge="1">
          <mxGeometry width="50" height="50" relative="1" as="geometry">
            <mxPoint x="329" y="410" as="sourcePoint" />
            <mxPoint x="379" y="360" as="targetPoint" />
          </mxGeometry>
        </mxCell>
        <mxCell id="gHH44tUbJipPFbH2hdy1-18" value="Admin&lt;br&gt;Bastion" style="rounded=0;whiteSpace=wrap;html=1;" parent="1" vertex="1">
          <mxGeometry x="130" y="280" width="120" height="60" as="geometry" />
        </mxCell>
        <mxCell id="gHH44tUbJipPFbH2hdy1-21" value="Opensearch Dashboard" style="rounded=0;whiteSpace=wrap;html=1;" parent="1" vertex="1">
          <mxGeometry x="550" y="280" width="120" height="60" as="geometry" />
        </mxCell>
        <mxCell id="gHH44tUbJipPFbH2hdy1-23" style="edgeStyle=orthogonalEdgeStyle;rounded=0;orthogonalLoop=1;jettySize=auto;html=1;entryX=0;entryY=0.5;entryDx=0;entryDy=0;entryPerimeter=0;exitX=0.5;exitY=1;exitDx=0;exitDy=0;" parent="1" source="gHH44tUbJipPFbH2hdy1-18" target="gHH44tUbJipPFbH2hdy1-11" edge="1">
          <mxGeometry relative="1" as="geometry" />
        </mxCell>
        <mxCell id="gHH44tUbJipPFbH2hdy1-24" style="edgeStyle=orthogonalEdgeStyle;rounded=0;orthogonalLoop=1;jettySize=auto;html=1;entryX=0;entryY=0;entryDx=0;entryDy=52.5;entryPerimeter=0;exitX=0.5;exitY=1;exitDx=0;exitDy=0;" parent="1" source="gHH44tUbJipPFbH2hdy1-18" target="gHH44tUbJipPFbH2hdy1-6" edge="1">
          <mxGeometry relative="1" as="geometry" />
        </mxCell>
        <mxCell id="gHH44tUbJipPFbH2hdy1-25" style="edgeStyle=orthogonalEdgeStyle;rounded=0;orthogonalLoop=1;jettySize=auto;html=1;entryX=0;entryY=0;entryDx=0;entryDy=52.5;entryPerimeter=0;exitX=0.5;exitY=1;exitDx=0;exitDy=0;" parent="1" source="gHH44tUbJipPFbH2hdy1-18" target="gHH44tUbJipPFbH2hdy1-1" edge="1">
          <mxGeometry relative="1" as="geometry" />
        </mxCell>
        <mxCell id="gHH44tUbJipPFbH2hdy1-26" value="" style="shape=cylinder3;whiteSpace=wrap;html=1;boundedLbl=1;backgroundOutline=1;size=15;" parent="1" vertex="1">
          <mxGeometry x="570" y="665" width="60" height="80" as="geometry" />
        </mxCell>
        <mxCell id="gHH44tUbJipPFbH2hdy1-27" value="" style="shape=cylinder3;whiteSpace=wrap;html=1;boundedLbl=1;backgroundOutline=1;size=15;" parent="1" vertex="1">
          <mxGeometry x="580" y="675" width="60" height="80" as="geometry" />
        </mxCell>
        <mxCell id="gHH44tUbJipPFbH2hdy1-28" value="&lt;font style=&quot;font-size: 10px;&quot;&gt;Opensearch&lt;br&gt;cluster&lt;/font&gt;" style="shape=cylinder3;whiteSpace=wrap;html=1;boundedLbl=1;backgroundOutline=1;size=15;" parent="1" vertex="1">
          <mxGeometry x="590" y="685" width="60" height="80" as="geometry" />
        </mxCell>
        <mxCell id="gHH44tUbJipPFbH2hdy1-29" value="" style="endArrow=classic;startArrow=classic;html=1;rounded=0;entryX=0.5;entryY=1;entryDx=0;entryDy=0;exitX=0.667;exitY=0.021;exitDx=0;exitDy=0;exitPerimeter=0;" parent="1" source="gHH44tUbJipPFbH2hdy1-26" target="gHH44tUbJipPFbH2hdy1-21" edge="1">
          <mxGeometry width="50" height="50" relative="1" as="geometry">
            <mxPoint x="90" y="610" as="sourcePoint" />
            <mxPoint x="140" y="560" as="targetPoint" />
          </mxGeometry>
        </mxCell>
        <mxCell id="gHH44tUbJipPFbH2hdy1-36" value="" style="endArrow=classic;html=1;rounded=0;entryX=0;entryY=1;entryDx=0;entryDy=-15;entryPerimeter=0;exitX=0.5;exitY=1;exitDx=0;exitDy=0;exitPerimeter=0;" parent="1" target="gHH44tUbJipPFbH2hdy1-26" edge="1" source="w4JY9uhTYFdQ_E_2Ne8X-2">
          <mxGeometry width="50" height="50" relative="1" as="geometry">
            <mxPoint x="520" y="570" as="sourcePoint" />
            <mxPoint x="520" y="800" as="targetPoint" />
            <Array as="points">
              <mxPoint x="520" y="730" />
            </Array>
          </mxGeometry>
        </mxCell>
        <mxCell id="gHH44tUbJipPFbH2hdy1-37" value="Logs" style="text;html=1;strokeColor=none;fillColor=none;align=center;verticalAlign=middle;whiteSpace=wrap;rounded=0;" parent="1" vertex="1">
          <mxGeometry x="444" y="540" width="60" height="30" as="geometry" />
        </mxCell>
        <mxCell id="w4JY9uhTYFdQ_E_2Ne8X-1" value="Logs" style="text;html=1;strokeColor=none;fillColor=none;align=center;verticalAlign=middle;whiteSpace=wrap;rounded=0;" vertex="1" parent="1">
          <mxGeometry x="504" y="735" width="60" height="30" as="geometry" />
        </mxCell>
        <mxCell id="w4JY9uhTYFdQ_E_2Ne8X-2" value="Kafka" style="shape=cylinder3;whiteSpace=wrap;html=1;boundedLbl=1;backgroundOutline=1;size=15;" vertex="1" parent="1">
          <mxGeometry x="490" y="600" width="60" height="80" as="geometry" />
        </mxCell>
      </root>
    </mxGraphModel>
  </diagram>
</mxfile>
